<?xml version="1.0" encoding="utf-8"?>
<!-- Generator: Adobe Illustrator 24.1.1, SVG Export Plug-In . SVG Version: 6.00 Build 0)  -->
<svg version="1.1" id="Warstwa_1" xmlns="http://www.w3.org/2000/svg" xmlns:xlink="http://www.w3.org/1999/xlink" x="0px" y="0px"
	 viewBox="0 0 300 100" style="enable-background:new 0 0 300 100;" xml:space="preserve">
<style type="text/css">
	.st0{fill:#1B75BB;}
	.st1{fill:#FFFFFF;}
	.st2{fill:#231F20;}
</style>
<g>
	<g>
		<g>
			<path class="st0" d="M52.9,5.5c0,0,5.9,8.1,19.7,10.4c13.2,2.3,17.2-2.8,17.2-2.8s10,54.8-37,80.5c-47-25.7-37-80.5-37-80.5
				s4,5.1,17.2,2.8C47,13.5,52.9,5.5,52.9,5.5z"/>
			<path class="st0" d="M89.9,13.1c0,0-4,5.1-17.2,2.8C58.8,13.5,52.9,5.5,52.9,5.5s-0.1,0.1-0.2,0.2v87.8c0.1,0,0.1,0.1,0.2,0.1
				C99.8,67.8,89.9,13.1,89.9,13.1z"/>
		</g>
		<g>
			<path class="st1" d="M34.1,25.3h37.5v9.2H65v-2.5H48.4l10.7,12.8L48.4,57.6H65v-2.5h6.6v9.2H34.1l16.3-19.5L34.1,25.3z
				 M34.1,25.3"/>
		</g>
	</g>
	<g>
		<path class="st2" d="M111.7,47.6c-3.1,0-5.8-1.1-8-3.3s-3.3-4.9-3.3-8c0-3.1,1.1-5.8,3.3-8c2.2-2.2,4.9-3.3,8-3.3h28.4v1.4
			l-5.7,5.7h-22.7c-1.2,0-2.2,0.5-3,1.4c-0.8,1-1.3,2.1-1.3,3.5c0,1.4,0.4,2.5,1.3,3.5c0.8,1,1.8,1.5,3,1.5h17c3.1,0,5.8,1.1,8,3.3
			c2.2,2.2,3.3,4.9,3.3,8c0,3.1-1.1,5.8-3.3,8c-2.2,2.2-4.9,3.3-8,3.3H106l-5.7-5.7v-1.4h28.4c1.2,0,2.2-0.5,3-1.4
			c0.8-1,1.3-2.1,1.3-3.5c0-1.4-0.4-2.5-1.3-3.5c-0.8-1-1.8-1.5-3-1.5H111.7z"/>
		<path class="st2" d="M144.3,24.9h7.1v39.8H150l-5.7-5.7V24.9z"/>
		<path class="st2" d="M175.6,64.7c-5.5,0-10.2-1.9-14.1-5.8c-3.9-3.9-5.8-8.6-5.8-14.1c0-5.5,1.9-10.2,5.8-14.1
			c3.9-3.9,8.6-5.8,14.1-5.8h17v1.4l-5.7,5.7h-11.4c-3.5,0-6.5,1.3-9,3.8s-3.8,5.5-3.8,9c0,3.5,1.3,6.5,3.8,9s5.5,3.8,9,3.8h9.9
			v-9.9h-15.6v-1.4l4.3-4.3h18.5v22.7H175.6z"/>
		<path class="st2" d="M204,35.7v28.9h-1.4l-5.7-5.7V24.9h9.9l12.8,32.5l12.8-32.5h9.9v39.8h-7.1V35.7l-11.4,28.9h-8.5L204,35.7z"/>
		<path class="st2" d="M271.7,49l-6.6-16.9l-12.8,32.5h-7.1l15.6-39.8h8.5L285,64.7h-7.1l-3.4-8.5H258v-1.4l5.7-5.7H271.7z"/>
	</g>
	<g>
		<path class="st2" d="M111.1,79v0.4l-1.7,1.7h-3.3c-1.6,0-3-0.6-4.1-1.7c-1.1-1.1-1.7-2.5-1.7-4.1s0.6-3,1.7-4.1
			c1.1-1.1,2.5-1.7,4.1-1.7h5v0.4l-1.7,1.7h-3.3c-1,0-1.9,0.4-2.6,1.1s-1.1,1.6-1.1,2.6s0.4,1.9,1.1,2.6s1.6,1.1,2.6,1.1H111.1z"/>
		<path class="st2" d="M117.2,75.5l-0.2-0.2l-5-5.8h2.5l3.7,4.4l3.7-4.4h2.5l-5,5.8l-0.2,0.2V81h-0.4l-1.7-1.7V75.5z"/>
		<path class="st2" d="M132.7,69.4c0.9,0,1.7,0.3,2.4,1c0.6,0.6,1,1.4,1,2.4s-0.3,1.7-1,2.4c0,0-0.1,0.1-0.1,0.1
			c0,0,0.1,0.1,0.1,0.1c0.6,0.6,1,1.4,1,2.4s-0.3,1.7-1,2.4c-0.6,0.6-1.4,1-2.4,1h-7.5V69.4H132.7z M128.2,76v-0.4l1.2-1.2h3.3
			c0.3,0,0.6-0.1,0.9-0.4c0.2-0.3,0.4-0.6,0.4-1c0-0.4-0.1-0.7-0.4-1c-0.2-0.3-0.5-0.4-0.9-0.4h-5.4V79h5.4c0.3,0,0.6-0.1,0.9-0.4
			c0.2-0.3,0.4-0.6,0.4-1c0-0.4-0.1-0.7-0.4-1c-0.2-0.3-0.5-0.4-0.9-0.4H128.2z"/>
		<path class="st2" d="M137.3,81V69.4h10v0.4l-1.7,1.7h-6.2V79h7.9v0.4l-1.7,1.7H137.3z M147.3,74.4v0.4L146,76h-5.8v-1.7H147.3z"/>
		<path class="st2" d="M155.2,75.6c0.6,0,1.1-0.2,1.5-0.6c0.4-0.4,0.6-0.9,0.6-1.5c0-0.6-0.2-1.1-0.6-1.5c-0.4-0.4-0.9-0.6-1.5-0.6
			h-4.6V81h-0.4l-1.7-1.7v-10h6.6c1.1,0,2.1,0.4,2.9,1.2c0.8,0.8,1.2,1.8,1.2,2.9c0,1.1-0.4,2.1-1.2,2.9c-0.6,0.6-1.3,1-2,1.1
			l3.7,3.4h-2.5l-3.6-3.3h-2.2v-2.1H155.2z"/>
		<path class="st2" d="M165.4,81l-1.7-1.7v-7.9h-4.2v-2.1H170v2.1h-4.2V81H165.4z"/>
		<path class="st2" d="M171.2,81V69.4h10v0.4l-1.7,1.7h-6.2V79h7.9v0.4l-1.7,1.7H171.2z M181.2,74.4v0.4l-1.2,1.2h-5.8v-1.7H181.2z"
			/>
		<path class="st2" d="M193.2,79v0.4l-1.7,1.7h-3.3c-1.6,0-3-0.6-4.1-1.7c-1.1-1.1-1.7-2.5-1.7-4.1s0.6-3,1.7-4.1
			c1.1-1.1,2.5-1.7,4.1-1.7h5v0.4l-1.7,1.7h-3.3c-1,0-1.9,0.4-2.6,1.1s-1.1,1.6-1.1,2.6s0.4,1.9,1.1,2.6s1.6,1.1,2.6,1.1H193.2z"/>
		<path class="st2" d="M196.5,69.4V81h-2.1V69.4H196.5z M205.3,69.4V81h-2.1v-5H197v-0.4l1.2-1.2h5v-5H205.3z"/>
		<path class="st2" d="M208.6,72.3V81h-0.4l-1.7-1.7v-10h2.5l7.1,9.1v-9.1h2.1V81h-2.5L208.6,72.3z"/>
		<path class="st2" d="M225.2,81c-1.6,0-3-0.6-4.1-1.7c-1.1-1.1-1.7-2.5-1.7-4.1s0.6-3,1.7-4.1c1.1-1.1,2.5-1.7,4.1-1.7h1.7
			c1.6,0,3,0.6,4.1,1.7c1.1,1.1,1.7,2.5,1.7,4.1s-0.6,3-1.7,4.1c-1.1,1.1-2.5,1.7-4.1,1.7H225.2z M226.9,79c1,0,1.9-0.4,2.6-1.1
			c0.7-0.7,1.1-1.6,1.1-2.6s-0.4-1.9-1.1-2.6c-0.7-0.7-1.6-1.1-2.6-1.1h-1.7c-1,0-1.9,0.4-2.6,1.1c-0.7,0.7-1.1,1.6-1.1,2.6
			s0.4,1.9,1.1,2.6c0.7,0.7,1.6,1.1,2.6,1.1H226.9z"/>
		<path class="st2" d="M233.9,81V69.4h2.1V79h7.9v0.4l-1.7,1.7H233.9z"/>
		<path class="st2" d="M250.9,81c-1.6,0-3-0.6-4.1-1.7c-1.1-1.1-1.7-2.5-1.7-4.1s0.6-3,1.7-4.1c1.1-1.1,2.5-1.7,4.1-1.7h1.7
			c1.6,0,3,0.6,4.1,1.7c1.1,1.1,1.7,2.5,1.7,4.1s-0.6,3-1.7,4.1c-1.1,1.1-2.5,1.7-4.1,1.7H250.9z M252.6,79c1,0,1.9-0.4,2.6-1.1
			c0.7-0.7,1.1-1.6,1.1-2.6s-0.4-1.9-1.1-2.6c-0.7-0.7-1.6-1.1-2.6-1.1h-1.7c-1,0-1.9,0.4-2.6,1.1c-0.7,0.7-1.1,1.6-1.1,2.6
			s0.4,1.9,1.1,2.6c0.7,0.7,1.6,1.1,2.6,1.1H252.6z"/>
		<path class="st2" d="M265.5,81c-1.6,0-3-0.6-4.1-1.7c-1.1-1.1-1.7-2.5-1.7-4.1s0.6-3,1.7-4.1c1.1-1.1,2.5-1.7,4.1-1.7h5v0.4
			l-1.7,1.7h-3.3c-1,0-1.9,0.4-2.6,1.1s-1.1,1.6-1.1,2.6s0.4,1.9,1.1,2.6s1.6,1.1,2.6,1.1h2.9V76h-4.6v-0.4l1.2-1.2h5.4V81H265.5z"
			/>
		<path class="st2" d="M271.7,69.4h2.1V81h-0.4l-1.7-1.7V69.4z"/>
		<path class="st2" d="M275,81V69.4h10v0.4l-1.7,1.7h-6.2V79h7.9v0.4l-1.7,1.7H275z M285,74.4v0.4l-1.2,1.2h-5.8v-1.7H285z"/>
	</g>
</g>
</svg>
